<svg width="32" height="32" viewBox="0 0 32 32" fill="none" xmlns="http://www.w3.org/2000/svg">
<g clip-path="url(#clip0_10001_76618)">
<path d="M7 27H5V25H7V27ZM27 27H25V25H27V27ZM9 25H7V23H9V25ZM25 25H23V23H25V25ZM11 23H9V21H11V23ZM23 23H21V21H23V23ZM13 21H11V19H13V21ZM21 21H19V19H21V21ZM15 19H13V17H15V19ZM19 19H17V17H19V19ZM15 15H13V13H15V15ZM19 15H17V13H19V15ZM13 13H11V11H13V13ZM21 13H19V11H21V13ZM11 11H9V9H11V11ZM23 11H21V9H23V11ZM9 9H7V7H9V9ZM25 9H23V7H25V9ZM7 5V7H5V5H7ZM27 7H25V5H27V7Z" fill="currentColor"/>
</g>
<defs>
<clipPath id="clip0_10001_76618">
<rect width="32" height="32" fill="white"/>
</clipPath>
</defs>
</svg>
