<svg width="32" height="32" viewBox="0 0 32 32" fill="none" xmlns="http://www.w3.org/2000/svg">
<g clip-path="url(#clip0_10001_76654)">
<path d="M26 30.0029H6V28.0029H26V30.0029ZM6 28.0029H4V4.00293H6V28.0029ZM28 28.0029H26V8.00293H28V28.0029ZM22 23.0029H20V21.0029H22V23.0029ZM20 21.0029H8V19.0029H20V21.0029ZM24 21.0029H22V19.0029H24V21.0029ZM22 19.0029H20V17.0029H22V19.0029ZM12 15.0029H10V13.0029H12V15.0029ZM10 13.0029H8V11.0029H10V13.0029ZM24 13.0029H12V11.0029H24V13.0029ZM12 11.0029H10V9.00293H12V11.0029ZM24 6.00293H26V8.00293H22V4.00293H24V6.00293ZM22 4.00293H6V2.00293H22V4.00293Z" fill="currentColor"/>
</g>
<defs>
<clipPath id="clip0_10001_76654">
<rect width="32" height="32" fill="white"/>
</clipPath>
</defs>
</svg>
