<svg width="32" height="32" viewBox="0 0 32 32" fill="none" xmlns="http://www.w3.org/2000/svg">
<g clip-path="url(#clip0_10001_76574)">
<path d="M5 27.998H27V18H29V28H27V29.998H5V28H3V18H5V27.998ZM17 25.001H15V23.001H17V25.001ZM15 23.001H13V21.001H15V23.001ZM19 23.001H17V21.001H19V23.001ZM13 21.001H11V19.001H13V21.001ZM21 21.001H19V19.001H21V21.001ZM17 21H15V2H17V21ZM11 19.001H9V17.001H11V19.001ZM23 19.001H21V17.001H23V19.001ZM9 17H7V15H9V17ZM25 17H23V15H25V17ZM7 15H5V13H7V15ZM27 15H25V13H27V15Z" fill="currentColor"/>
</g>
<defs>
<clipPath id="clip0_10001_76574">
<rect width="32" height="32" fill="white"/>
</clipPath>
</defs>
</svg>
