<svg width="32" height="32" viewBox="0 0 32 32" fill="none" xmlns="http://www.w3.org/2000/svg">
<g clip-path="url(#clip0_10001_76626)">
<path d="M22 25V27H10V25H22ZM10 25H8V23H10V25ZM8 23H6V15H8V23ZM20 19H18V17H20V19ZM22 17H20V15H22V17ZM10 15H8V13H10V15ZM24 15H22V13H24V15ZM22 13H10V11H22V13ZM26 13H24V11H26V13ZM24 11H22V9H24V11ZM22 9H20V7H22V9ZM20 7H18V5H20V7Z" fill="currentColor"/>
</g>
<defs>
<clipPath id="clip0_10001_76626">
<rect width="32" height="32" fill="white"/>
</clipPath>
</defs>
</svg>
