<svg width="32" height="32" viewBox="0 0 32 32" fill="none" xmlns="http://www.w3.org/2000/svg">
<g clip-path="url(#clip0_10001_76630)">
<path d="M17 31H15V20H17V31ZM6 18H15V20H4V16H6V18ZM28 20H17V18H26V16H28V20ZM8 16H6V14H8V16ZM26 16H24V14H26V16ZM10 14H8V12H10V14ZM24 14H22V12H24V14ZM13 10H19V5H21V10H22V12H10V10H11V5H13V10ZM11 5H9V3H11V5ZM23 5H21V3H23V5ZM21 3H11V1H21V3Z" fill="currentColor"/>
</g>
<defs>
<clipPath id="clip0_10001_76630">
<rect width="32" height="32" fill="white"/>
</clipPath>
</defs>
</svg>
