<svg width="32" height="32" viewBox="0 0 32 32" fill="none" xmlns="http://www.w3.org/2000/svg">
<path d="M17 31H15V20H17V31ZM28 28H26V26H28V28ZM26 26H24V24H26V26ZM24 24H22V22H24V24ZM22 22H20V20H22V22ZM6 18H15V20H4V16H6V18ZM20 20H18V18H20V20ZM28 20H22V18H26V16H28V20ZM18 18H16V16H18V18ZM8 16H6V14H8V16ZM16 16H14V14H16V16ZM26 16H24V14H26V16ZM10 14H8V12H10V14ZM14 14H12V12H14V14ZM24 14H22V12H24V14ZM12 12H10V10H12V12ZM21 10H22V12H14V10H19V5H21V10ZM10 10H8V8H10V10ZM13 9H11V5H13V9ZM8 8H6V6H8V8ZM6 6H4V4H6V6ZM11 5H9V3H11V5ZM23 5H21V3H23V5ZM21 3H11V1H21V3Z" fill="currentColor"/>
</svg>
