<svg width="32" height="32" viewBox="0 0 32 32" fill="none" xmlns="http://www.w3.org/2000/svg">
<g clip-path="url(#clip0_10001_76590)">
<path d="M30 27H28V25H30V27ZM13 26H4V24H13V26ZM28 25H26V23H28V25ZM4 24H2V19H4V24ZM13 19H4V17H18V19H15V24H13V19ZM26 23H24V21H26V23ZM24 21H22V19H24V21ZM22 19H20V17H22V19ZM20 17H18V15H20V17ZM15 13H18V15H4V13H13V8H15V13ZM22 15H20V13H22V15ZM4 13H2V8H4V13ZM24 13H22V11H24V13ZM26 11H24V9H26V11ZM28 9H26V7H28V9ZM13 8H4V6H13V8ZM30 7H28V5H30V7Z" fill="currentColor"/>
</g>
<defs>
<clipPath id="clip0_10001_76590">
<rect width="32" height="32" fill="white"/>
</clipPath>
</defs>
</svg>
