<svg width="32" height="32" viewBox="0 0 32 32" fill="none" xmlns="http://www.w3.org/2000/svg">
<path d="M5 27H9V29H3V23H5V27ZM30 29H15V27H30V29ZM11 27H9V25H11V27ZM13 25H11V23H13V25ZM7 23H5V21H7V23ZM15 23H13V21H15V23ZM9 21H7V19H9V21ZM17 21H15V19H17V21ZM11 19H9V17H11V19ZM19 19H17V17H19V19ZM13 17H11V15H13V17ZM21 17H19V15H21V17ZM15 15H13V13H15V15ZM23 15H21V13H23V15ZM17 13H15V11H17V13ZM25 13H23V11H25V13ZM19 11H17V9H19V11ZM23 11H21V9H23V11ZM27 11H25V9H27V11ZM21 9H19V7H21V9ZM29 9H27V7H29V9ZM23 7H21V5H23V7ZM27 7H25V5H27V7ZM25 5H23V3H25V5Z" fill="currentColor"/>
</svg>
