<svg width="32" height="32" viewBox="0 0 32 32" fill="none" xmlns="http://www.w3.org/2000/svg">
<path d="M7 31H3V29H7V31ZM29 31H25V29H29V31ZM3 29H1V25H3V29ZM31 29H29V25H31V29ZM15 26H17V25H20V27H17V28H15V27H12V25H15V26ZM12 25H9V23H12V25ZM17 25H15V15H17V25ZM23 25H20V23H23V25ZM9 11H7V21H9V23H7V22H5V10H7V9H9V11ZM25 10H27V22H25V23H23V21H25V11H23V9H25V10ZM15 15H12V13H15V15ZM20 15H17V13H20V15ZM12 13H9V11H12V13ZM23 13H20V11H23V13ZM12 9H9V7H12V9ZM23 9H20V7H23V9ZM3 7H1V3H3V7ZM17 5H20V7H17V6H15V7H12V5H15V4H17V5ZM31 7H29V3H31V7ZM7 3H3V1H7V3ZM29 3H25V1H29V3Z" fill="#232323"/>
</svg>
