<svg width="32" height="32" viewBox="0 0 32 32" fill="none" xmlns="http://www.w3.org/2000/svg">
<g clip-path="url(#clip0_10001_76420)">
<path d="M5 28H3V18H5V28ZM11 28H9V22H11V28ZM17 28H15V18H17V28ZM23 28H21V14H23V28ZM29 10V28H27V10H29ZM11.5 18H8.5V16H11.5V18ZM8.5 16H5.5V14H8.5V16ZM14.5 16H11.5V14H14.5V16ZM5.5 14H2.5V12H5.5V14ZM17.5 14H14.5V12H17.5V14ZM20.5 12H17.5V10H20.5V12ZM23.5 10H20.5V8H23.5V10ZM26.5 8H23.5V6H26.5V8ZM29.5 6H26.5V4H29.5V6Z" fill="#232323"/>
</g>
<defs>
<clipPath id="clip0_10001_76420">
<rect width="32" height="32" fill="white"/>
</clipPath>
</defs>
</svg>
