<svg width="32" height="32" viewBox="0 0 32 32" fill="none" xmlns="http://www.w3.org/2000/svg">
<g clip-path="url(#clip0_10001_76392)">
<path d="M15.0088 31.9912L13.0088 32L13 30L15 29.9912L15.0088 31.9912ZM19.0088 31.9912L17.0088 32L17 30L19 29.9912L19.0088 31.9912ZM13.0088 29.9912L11.0088 30L11 28L13 27.9912L13.0088 29.9912ZM17.0088 29.9912L15.0088 30L15 28L17 27.9912L17.0088 29.9912ZM21.0088 29.9912L19.0088 30L19 28L21 27.9912L21.0088 29.9912ZM23 25H9V23H23V25ZM9 23H7V9H9V23ZM25 23H23V9H25V23ZM18.0176 17.9814L14.0088 18L13.9912 14.0088L18 13.9912L18.0176 17.9814ZM23 9H9V7H23V9ZM13.0088 3.99023L11.0098 4L11 2L13 1.99121L13.0088 3.99023ZM17.0088 3.99023L15.0098 4L15 2L17 1.99121L17.0088 3.99023ZM21.0088 3.99023L19.0098 4L19 2L21 1.99121L21.0088 3.99023ZM15.0088 1.99023L13.0098 2L13 0L15 -0.00878906L15.0088 1.99023ZM19.0088 1.99023L17.0098 2L17 0L19 -0.00878906L19.0088 1.99023Z" fill="#232323"/>
</g>
<defs>
<clipPath id="clip0_10001_76392">
<rect width="32" height="32" fill="white"/>
</clipPath>
</defs>
</svg>
