<svg width="32" height="32" viewBox="0 0 32 32" fill="none" xmlns="http://www.w3.org/2000/svg">
<g clip-path="url(#clip0_10001_76344)">
<path d="M18 29H14V27H18V29ZM27 25H5V23H27V25ZM5 23H3V20H5V23ZM29 23H27V20H29V23ZM7 20H5V18H7V20ZM27 20H25V18H27V20ZM9 18H7V16H9V18ZM25 18H23V16H25V18ZM11 16H9V7H11V16ZM23 7V16H21V7H23ZM13 7H11V5H13V7ZM21 7H19V5H21V7ZM19 5H13V3H19V5Z" fill="#232323"/>
</g>
<defs>
<clipPath id="clip0_10001_76344">
<rect width="32" height="32" fill="white"/>
</clipPath>
</defs>
</svg>
