<svg width="32" height="32" viewBox="0 0 32 32" fill="none" xmlns="http://www.w3.org/2000/svg">
<path d="M18 31H14V29H18V31ZM14 29H11V27H14V29ZM21 29H18V27H21V29ZM11 27H9V25H11V27ZM23 27H21V25H23V27ZM9 25H7V22H9V25ZM25 25H23V22H25V25ZM7 22H5V19H7V22ZM18.5 18H17V22H15V18H13.5V16H18.5V18ZM27 22H25V19H27V22ZM5 19H3V7H5V19ZM29 19H27V7H29V19ZM13.5 16H11.5V11H13.5V16ZM20.5 16H18.5V11H20.5V16ZM18.5 11H13.5V9H18.5V11ZM8 7H5V5H8V7ZM27 7H24V5H27V7ZM12 5H8V3H12V5ZM24 5H20V3H24V5ZM20 3H12V1H20V3Z" fill="#232323"/>
</svg>
