<svg width="32" height="32" viewBox="0 0 32 32" fill="none" xmlns="http://www.w3.org/2000/svg">
<g clip-path="url(#clip0_10001_76456)">
<path d="M7 29H5V21H7V29ZM27 29H25V21H27V29ZM9 21H7V19H9V21ZM25 21H23V19H25V21ZM23 19H9V17H23V19ZM20 15H12V13H20V15ZM12 13H10V5H12V13ZM22 13H20V5H22V13ZM28 8H26V6H28V8ZM26 6H24V4H26V6ZM30 6H28V4H30V6ZM20 5H12V3H20V5ZM28 4H26V2H28V4Z" fill="#232323"/>
</g>
<defs>
<clipPath id="clip0_10001_76456">
<rect width="32" height="32" fill="white"/>
</clipPath>
</defs>
</svg>
