<svg width="32" height="32" viewBox="0 0 32 32" fill="none" xmlns="http://www.w3.org/2000/svg">
<g clip-path="url(#clip0_10001_76408)">
<path d="M16 30H6V28H16V30ZM6 28H4V21H6V28ZM19 28H16V26H19V28ZM22 26H19V24H22V26ZM24 24H22V22H24V24ZM16 23H13V21H16V23ZM26 22H24V19H26V22ZM13 21H6V19H13V21ZM19 21H16V19H19V21ZM21 19H19V16H21V19ZM28 19H26V16H28V19ZM13 16H11V13H13V16ZM23 16H21V13H23V16ZM30 16H28V6H30V16ZM8 15H6V10H8V15ZM3 14H1V8H3V14ZM16 13H13V11H16V13ZM21 13H19V6H21V13ZM10 10H8V8H10V10ZM5 8H3V5H5V8ZM15 8H10V6H15V8ZM28 6H21V4H28V6ZM8 5H5V3H8V5ZM14 1V3H8V1H14Z" fill="#232323"/>
</g>
<defs>
<clipPath id="clip0_10001_76408">
<rect width="32" height="32" fill="white"/>
</clipPath>
</defs>
</svg>
