<svg width="32" height="32" viewBox="0 0 32 32" fill="none" xmlns="http://www.w3.org/2000/svg">
<g clip-path="url(#clip0_10001_76388)">
<path d="M30 27H4V25H30V27ZM4 25H2V23H4V25ZM20 24H18V22H20V24ZM6 23H4V21H6V23ZM8 21H6V19H8V21ZM18 21H16V19H18V21ZM10 19H8V17H10V19ZM16 18H14V16H16V18ZM12 17H10V15H12V17ZM14 15H12V13H14V15ZM16 13H14V11H16V13ZM18 11H16V9H18V11ZM20 9H18V7H20V9ZM22 7H20V5H22V7ZM24 5H22V3H24V5Z" fill="#232323"/>
</g>
<defs>
<clipPath id="clip0_10001_76388">
<rect width="32" height="32" fill="white"/>
</clipPath>
</defs>
</svg>
