<svg width="32" height="32" viewBox="0 0 32 32" fill="none" xmlns="http://www.w3.org/2000/svg">
<g clip-path="url(#clip0_10001_76412)">
<path d="M5 31H3V29H5V31ZM7 29H5V27H7V29ZM5 27H3V5H5V27ZM9 27H7V25H9V27ZM27 25H9V23H27V25ZM29 23H27V5H29V23ZM17 20H15V18H17V20ZM15 18H13V16H15V18ZM19 18H17V16H19V18ZM13 16H11V14H13V16ZM17 16H15V3H17V16ZM21 16H19V14H21V16ZM11 14H9V12H11V14ZM23 14H21V12H23V14ZM13 5H5V3H13V5ZM27 5H19V3H27V5Z" fill="#232323"/>
</g>
<defs>
<clipPath id="clip0_10001_76412">
<rect width="32" height="32" fill="white"/>
</clipPath>
</defs>
</svg>
