<svg width="32" height="32" viewBox="0 0 32 32" fill="none" xmlns="http://www.w3.org/2000/svg">
<g clip-path="url(#clip0_10001_76360)">
<path d="M4 27H28V25H4V27ZM28 25H30V20H28V25ZM2 25H4V20H2V25ZM26 20H28V18H26V20ZM4 20H7V18H4V20ZM23 18H26V16H23V18ZM7 16V18H9V16H7ZM21 16H23V14H21V16ZM9 16H11V14H9V16ZM23 14H26V12H23V14ZM11 14H21V12H11V14ZM26 12H28V9H26V12ZM9 12H11V9H9V12ZM24 9H26V7H24V9ZM11 9H14V7H11V9ZM14 7H24V5H14V7Z" fill="#232323"/>
</g>
<defs>
<clipPath id="clip0_10001_76360">
<rect width="32" height="32" fill="white" transform="matrix(-1 0 0 1 32 0)"/>
</clipPath>
</defs>
</svg>
