<svg width="32" height="32" viewBox="0 0 32 32" fill="none" xmlns="http://www.w3.org/2000/svg">
<g clip-path="url(#clip0_10001_76505)">
<path d="M11 29H9V27H11V29ZM13 27H11V25H13V27ZM15 25H13V23H15V25ZM17 23H15V21H17V23ZM19 21H17V19H19V21ZM21 19H19V17H21V19ZM23 15V17H21V15H23ZM21 15H19V13H21V15ZM19 13H17V11H19V13ZM17 11H15V9H17V11ZM15 9H13V7H15V9ZM13 7H11V5H13V7ZM11 5H9V3H11V5Z" fill="currentColor"/>
</g>
<defs>
<clipPath id="clip0_10001_76505">
<rect width="32" height="32" fill="white"/>
</clipPath>
</defs>
</svg>
