<svg width="32" height="32" viewBox="0 0 32 32" fill="none" xmlns="http://www.w3.org/2000/svg">
<g clip-path="url(#clip0_10001_76523)">
<path d="M16 30H4V28H16V30ZM4 28H2V16H4V28ZM8 26H6V24H8V26ZM10 24H8V22H10V24ZM12 22H10V20H12V22ZM14 20H12V18H14V20ZM30 4V16H28V4H30ZM20 14H18V12H20V14ZM22.333 12H20.333V10H22.333V12ZM24.333 10H22.333V8H24.333V10ZM26.333 8H24.333V6H26.333V8ZM28 4H16V2H28V4Z" fill="currentColor"/>
</g>
<defs>
<clipPath id="clip0_10001_76523">
<rect width="32" height="32" fill="white"/>
</clipPath>
</defs>
</svg>
