<svg width="32" height="32" viewBox="0 0 32 32" fill="none" xmlns="http://www.w3.org/2000/svg">
<g clip-path="url(#clip0_10001_76519)">
<path d="M18 29H16V27H18V29ZM20 27H18V25H20V27ZM22 25H20V23H22V25ZM24 23H22V21H24V23ZM26 21H24V19H26V21ZM28 19H26V17H28V19ZM26 17H2V15H26V17ZM30 15V17H28V15H30ZM28 15H26V13H28V15ZM26 13H24V11H26V13ZM24 11H22V9H24V11ZM22 9H20V7H22V9ZM20 7H18V5H20V7ZM18 5H16V3H18V5Z" fill="currentColor"/>
</g>
<defs>
<clipPath id="clip0_10001_76519">
<rect width="32" height="32" fill="white"/>
</clipPath>
</defs>
</svg>
