<svg width="32" height="32" viewBox="0 0 32 32" fill="none" xmlns="http://www.w3.org/2000/svg">
<path d="M24.667 31.3334H11.667V29.3334H24.667V31.3334ZM11.667 29.3334H9.66699V27.3334H11.667V29.3334ZM26.667 29.3334H24.667V20.3334H26.667V29.3334ZM9.66699 27.3334H7.66699V20.3334H9.66699V27.3334ZM15.667 11.3334H16.667V14.3334H17.667V18.3334H15.667V14.3334H14.667V11.3334H11.667V14.3334H12.667V18.3334H13.667V24.3334H11.667V20.3334H9.66699V18.3334H10.667V14.3334H9.66699V11.3334H10.667V9.33337H15.667V11.3334ZM24.667 20.3334H17.667V18.3334H24.667V20.3334ZM10.667 5.33337H7.66699V4.33337H6.66699V2.33337H7.66699V1.33337H10.667V5.33337ZM13.667 5.33337H11.667V1.33337H13.667V5.33337ZM16.667 4.83337H14.667V1.83337H16.667V4.83337ZM19.667 4.33337H17.667V2.33337H19.667V4.33337ZM22.667 3.83337H20.667V2.83337H22.667V3.83337Z" fill="currentColor"/>
</svg>
