<svg width="32" height="32" viewBox="0 0 32 32" fill="none" xmlns="http://www.w3.org/2000/svg">
<g clip-path="url(#clip0_10001_76515)">
<path d="M16 29H14V27H16V29ZM14 27H12V25H14V27ZM12 25H10V23H12V25ZM10 23H8V21H10V23ZM8 21H6V19H8V21ZM6 19H4V17H6V19ZM4 15V17H2V15H4ZM30 17H6V15H30V17ZM6 15H4V13H6V15ZM8 13H6V11H8V13ZM10 11H8V9H10V11ZM12 9H10V7H12V9ZM14 7H12V5H14V7ZM16 5H14V3H16V5Z" fill="currentColor"/>
</g>
<defs>
<clipPath id="clip0_10001_76515">
<rect width="32" height="32" fill="white"/>
</clipPath>
</defs>
</svg>
