<svg width="32" height="32" viewBox="0 0 32 32" fill="none" xmlns="http://www.w3.org/2000/svg">
<g clip-path="url(#clip0_10001_76489)">
<path d="M17 21V23H15V21H17ZM15 21H13V19H15V21ZM19 21H17V19H19V21ZM13 19H11V17H13V19ZM21 19H19V17H21V19ZM11 17H9V15H11V17ZM23 17H21V15H23V17ZM9 15H7V13H9V15ZM25 15H23V13H25V15ZM7 13H5V11H7V13ZM27 13H25V11H27V13ZM5 11H3V9H5V11ZM29 11H27V9H29V11Z" fill="currentColor"/>
</g>
<defs>
<clipPath id="clip0_10001_76489">
<rect width="32" height="32" fill="white"/>
</clipPath>
</defs>
</svg>
