<svg width="32" height="32" viewBox="0 0 32 32" fill="none" xmlns="http://www.w3.org/2000/svg">
<g clip-path="url(#clip0_10001_76481)">
<path d="M29 21L29 23L27 23L27 21L29 21ZM27 19L27 21L25 21L25 19L27 19ZM25 17L25 19L23 19L23 17L25 17ZM23 15L23 17L21 17L21 15L23 15ZM21 13L21 15L19 15L19 13L21 13ZM19 11L19 13L17 13L17 11L19 11ZM15 9L17 9L17 11L15 11L15 9ZM15 11L15 13L13 13L13 11L15 11ZM13 13L13 15L11 15L11 13L13 13ZM11 15L11 17L9 17L9 15L11 15ZM9 17L9 19L7 19L7 17L9 17ZM7 19L7 21L5 21L5 19L7 19ZM5 21L5 23L3 23L3 21L5 21Z" fill="currentColor"/>
</g>
<defs>
<clipPath id="clip0_10001_76481">
<rect width="32" height="32" fill="white"/>
</clipPath>
</defs>
</svg>
