<svg width="32" height="32" viewBox="0 0 32 32" fill="none" xmlns="http://www.w3.org/2000/svg">
<g clip-path="url(#clip0_10001_76531)">
<path d="M27 29H5V27H27V29ZM5 27H3V5H5V27ZM29 27H27V21H29V27ZM19 23H11V21H19V23ZM11 21H9V13H11V21ZM14 20H12V18H14V20ZM16 18H14V16H16V18ZM18 16H16V14H18V16ZM28 6V14H26V6H28ZM21 13H19V11H21V13ZM23 11H21V9H23V11ZM25 9H23V7H25V9ZM26 6H18V4H26V6ZM11 5H5V3H11V5Z" fill="currentColor"/>
</g>
<defs>
<clipPath id="clip0_10001_76531">
<rect width="32" height="32" fill="white"/>
</clipPath>
</defs>
</svg>
