<svg width="32" height="32" viewBox="0 0 32 32" fill="none" xmlns="http://www.w3.org/2000/svg">
<g clip-path="url(#clip0_10001_76535)">
<path d="M27 29H5V27H27V29ZM5 27H3V5H5V27ZM29 27H27V21H29V27ZM10 24H8V22H10V24ZM18 24H16V16H18V24ZM12 22H10V20H12V22ZM14 20H12V18H14V20ZM16 16H8V14H16V16ZM28 14H20V12H28V14ZM20 4V12H18V4H20ZM24 10H22V8H24V10ZM26 8H24V6H26V8ZM28 6H26V4H28V6ZM11 5H5V3H11V5Z" fill="currentColor"/>
</g>
<defs>
<clipPath id="clip0_10001_76535">
<rect width="32" height="32" fill="white"/>
</clipPath>
</defs>
</svg>
