<svg width="32" height="32" viewBox="0 0 32 32" fill="none" xmlns="http://www.w3.org/2000/svg">
<path d="M19 29H12V27H19V29ZM12 27H10V25H12V27ZM21 27H19V25H21V27ZM10 25H8V23H10V25ZM23 25H21V23H23V25ZM9 14H8V23H6V14H7V12H9V14ZM20 22H16V20H20V22ZM16 20H14V16H16V20ZM22 20H20V16H22V20ZM20 16H16V14H20V16ZM11 12H9V9H11V12ZM23 12H21V9H23V12ZM13 9H11V6H13V9ZM21 9H19V6H21V9ZM15 6H13V4H15V6ZM19 6H17V4H19V6ZM17 4H15V2H17V4Z" fill="#232323"/>
<path fill-rule="evenodd" clip-rule="evenodd" d="M23 16L23 14L27 14L27 16L23 16Z" fill="#232323"/>
<path fill-rule="evenodd" clip-rule="evenodd" d="M23 20L23 18L25 18L25 20L23 20Z" fill="#232323"/>
<path fill-rule="evenodd" clip-rule="evenodd" d="M25 18L25 16L27 16L27 18L25 18Z" fill="#232323"/>
<path fill-rule="evenodd" clip-rule="evenodd" d="M23 22L23 20L27 20L27 22L23 22Z" fill="#232323"/>
</svg>
