<svg width="32" height="32" viewBox="0 0 32 32" fill="none" xmlns="http://www.w3.org/2000/svg">
<path d="M10 30.0012H8V24.0012H10V30.0012ZM20 24.0012H21V28.0012H22V30.0012H19V24.0012H18V22.0012H20V24.0012ZM12 24.0012H10V22.0012H12V24.0012ZM14 22.0012H12V20.0012H14V22.0012ZM18 22.0012H16V20.0012H18V22.0012ZM16 20.0012H14V10.0012H16V20.0012ZM10 17.0012H8V10.0012H10V17.0012ZM24 16.0012H22V14.0012H24V16.0012ZM22 12.0012V14.0012H20V12.0012H22ZM20 12.0012H18V8.00122H20V12.0012ZM12 10.0012H10V8.00122H12V10.0012ZM18 8.00122H12V6.00122H18V8.00122ZM17.667 4.66821H15V2.00122H17.667V4.66821Z" fill="#232323"/>
</svg>
