<svg width="32" height="32" viewBox="0 0 32 32" fill="none" xmlns="http://www.w3.org/2000/svg">
<path d="M11 26.0012V30.0012H9V26.0012H11ZM23 30.0012H21V26.0012H23V30.0012ZM13 26.0012H11V24.0012H13V26.0012ZM21 26.0012H19V24.0012H21V26.0012ZM15 24.0012H13V22.0012H15V24.0012ZM19 24.0012H17V22.0012H19V24.0012ZM17 22.0012H15V20.0012H17V22.0012ZM15 20.0002H13V14.0002H15V20.0002ZM19 20.0002H17V14.0002H19V20.0002ZM6 3.00122H26V0.0012207H28V8.00122H26V5.00122H23V13.0012H21V14.0012H19V11.0012H21V5.00122H11V11.0012H13V14.0012H11V13.0012H9V5.00122H6V8.00122H4V0.0012207H6V3.00122ZM19 11.0012H13V9.00122H19V11.0012ZM17 8.00024H15V6.00024H17V8.00024Z" fill="#232323"/>
</svg>
