<svg width="32" height="32" viewBox="0 0 32 32" fill="none" xmlns="http://www.w3.org/2000/svg">
<path d="M11 26.0007V30.0007H9V26.0007H11ZM23 30.0007H21V26.0007H23V30.0007ZM13 26.0007H11V24.0007H13V26.0007ZM21 26.0007H19V24.0007H21V26.0007ZM15 24.0007H13V22.0007H15V24.0007ZM19 24.0007H17V22.0007H19V24.0007ZM17 22.0007H15V20.0007H17V22.0007ZM6 13.0007H11V11.0007H13V13.0007H19V11.0007H21V13.0007H26V10.0007H28V18.0007H26V15.0007H19V19.9998H17V15.0007H15V19.9998H13V15.0007H6V18.0007H4V10.0007H6V13.0007ZM19 11.0007H13V9.00073H19V11.0007ZM17 7.99976H15V5.99976H17V7.99976Z" fill="#232323"/>
</svg>
