<svg width="32" height="32" viewBox="0 0 32 32" fill="none" xmlns="http://www.w3.org/2000/svg">
<path d="M17 27H15V25H17V27ZM15 25H13V23H15V25ZM19 25H17V23H19V25ZM13 23H11V21H13V23ZM21 23H19V21H21V23ZM11 21H9V19H11V21ZM23 21H21V19H23V21ZM16 20H14V18H16V20ZM9 19H7V17H9V19ZM25 19H23V17H25V19ZM13.999 18H11.999V16H13.999V18ZM18 18H16V15H18V18ZM11.999 16H3.99902V14H11.999V16ZM28.001 16H24V14H28.001V16ZM20 15H18V12H20V15ZM22.002 12H24V14H22V12H20.002V10H22.002V12ZM7 13H5V9H7V13ZM27 13H25V9H27V13ZM17 11H15V9H17V11ZM9 9H7V7H9V9ZM13.001 7H15V9H13V7H9V5H13.001V7ZM19 9H17V7H19V9ZM23.001 7H25V9H23V7H19V5H23.001V7Z" fill="#232323"/>
</svg>
