<svg width="32" height="32" viewBox="0 0 32 32" fill="none" xmlns="http://www.w3.org/2000/svg">
<path d="M11 26.0007V30.0007H9V26.0007H11ZM23 30.0007H21V26.0007H23V30.0007ZM13 26.0007H11V24.0007H13V26.0007ZM21 26.0007H19V24.0007H21V26.0007ZM11 20.9998H15V20.0007H17V20.9998H21V13.0007H23V20.9998H26V17.9998H28V25.9998H26V22.9998H19V24.0007H17V22.9998H15V24.0007H13V22.9998H6V25.9998H4V17.9998H6V20.9998H9V13.0007H11V20.9998ZM15 19.9998H13V13.9998H15V19.9998ZM19 19.9998H17V13.9998H19V19.9998ZM13 13.0007H11V11.0007H13V13.0007ZM21 13.0007H19V11.0007H21V13.0007ZM19 11.0007H13V9.00073H19V11.0007ZM17 7.99976H15V5.99976H17V7.99976Z" fill="#232323"/>
</svg>
