<svg width="32" height="32" viewBox="0 0 32 32" fill="none" xmlns="http://www.w3.org/2000/svg">
<g clip-path="url(#clip0_10001_76285)">
<path d="M18 29H14V27H18V29ZM14 27H12V25H14V27ZM20 27H18V25H20V27ZM12 25H10V23H12V25ZM22 25H20V23H22V25ZM10 23H8V21H10V23ZM16 23H14V21H16V23ZM24 23H22V21H24V23ZM8 21H6V19H8V21ZM14 21H12V19H14V21ZM18 21H16V18H18V21ZM26 21H24V19H26V21ZM12 19H10V17H12V19ZM20 18H18V15H20V18ZM10 17H1V15H10V17ZM31 17H26V15H31V17ZM22 15H20V12H22V15ZM26 15H24V12H26V15ZM5 9H4V13H2V9H3V7H5V9ZM29 9H30V13H28V9H27V7H29V9ZM24 12H22V10H24V12ZM17 9H15V7H17V9ZM8 7H5V5H8V7ZM15 7H13V5H15V7ZM19 7H17V5H19V7ZM27 7H24V5H27V7ZM13 5H8V3H13V5ZM24 5H19V3H24V5Z" fill="currentColor"/>
</g>
<defs>
<clipPath id="clip0_10001_76285">
<rect width="32" height="32" fill="white"/>
</clipPath>
</defs>
</svg>
