<svg width="32" height="32" viewBox="0 0 32 32" fill="none" xmlns="http://www.w3.org/2000/svg">
<g clip-path="url(#clip0_10001_76293)">
<path d="M13 30H4V28H13V30ZM26 30H21V28H26V30ZM4 28H2V19H4V28ZM15 28H13V19H15V28ZM21 28H19V26H21V28ZM28 28H26V26H28V28ZM19 26H17V21H19V26ZM30 26H28V21H30V26ZM21 21H19V19H21V21ZM28 21H26V19H28V21ZM13 19H4V17H13V19ZM26 19H21V17H26V19ZM13 15H4V13H13V15ZM28 15H19V13H28V15ZM4 13H2V4H4V13ZM15 13H13V4H15V13ZM19 13H17V4H19V13ZM30 13H28V4H30V13ZM13 4H4V2H13V4ZM28 4H19V2H28V4Z" fill="currentColor"/>
</g>
<defs>
<clipPath id="clip0_10001_76293">
<rect width="32" height="32" fill="white"/>
</clipPath>
</defs>
</svg>
