<svg width="32" height="32" viewBox="0 0 32 32" fill="none" xmlns="http://www.w3.org/2000/svg">
<g clip-path="url(#clip0_10001_76301)">
<path d="M15 28H17V25H19V29H17V30H15V29H13V25H15V28ZM9 22H8V23H7V24H8V25H9V24H10V23H13V25H11V26H9V27H7V26H6V25H5V23H6V21H7V19H9V22ZM22 24H23V25H24V24H25V23H24V22H23V19H25V21H26V23H27V25H26V26H25V27H23V26H21V25H19V23H22V24ZM19 21H13V19H19V21ZM7 15H4V17H7V19H3V17H2V15H3V13H7V15ZM13 19H11V13H13V19ZM21 19H19V13H21V19ZM29 15H30V17H29V19H25V17H28V15H25V13H29V15ZM9 6H11V7H13V9H10V8H9V7H8V8H7V9H8V10H9V13H7V11H6V9H5V7H6V6H7V5H9V6ZM19 13H13V11H19V13ZM25 6H26V7H27V9H26V11H25V13H23V10H24V9H25V8H24V7H23V8H22V9H19V7H21V6H23V5H25V6ZM17 3H19V7H17V4H15V7H13V3H15V2H17V3Z" fill="currentColor"/>
</g>
<defs>
<clipPath id="clip0_10001_76301">
<rect width="32" height="32" fill="white"/>
</clipPath>
</defs>
</svg>
