<svg width="32" height="32" viewBox="0 0 32 32" fill="none" xmlns="http://www.w3.org/2000/svg">
<g clip-path="url(#clip0_10001_76931)">
<path d="M20 27H25V29H7V27H12V17H20V27ZM7 27H5V17H7V27ZM14 27H18V19H14V27ZM27 27H25V17H27V27ZM3 19H1V17H3V19ZM31 19H29V17H31V19ZM5 17H3V15H5V17ZM29 17H27V15H29V17ZM7 15H5V13H7V15ZM27 15H25V13H27V15ZM9 13H7V11H9V13ZM25 13H23V11H25V13ZM11 11H9V9H11V11ZM23 11H21V9H23V11ZM13 9H11V7H13V9ZM21 9H19V7H21V9ZM15 7H13V5H15V7ZM19 7H17V5H19V7ZM17 5H15V3H17V5Z" fill="currentColor"/>
</g>
<defs>
<clipPath id="clip0_10001_76931">
<rect width="32" height="32" fill="white"/>
</clipPath>
</defs>
</svg>
