<svg width="32" height="32" viewBox="0 0 32 32" fill="none" xmlns="http://www.w3.org/2000/svg">
<path d="M26 28.001H6V26.001H26V28.001ZM27 24.001H28V26.001H26V24.001H6V26.001H4V24.001H5V22.001H27V24.001ZM5 22.001H3V10.001H5V22.001ZM29 22.001H27V10.001H29V22.001ZM17 20.001H15V18.001H17V20.001ZM15 18.001H13V15.001H15V18.001ZM19 18.001H17V15.001H19V18.001ZM17 15.001H15V13.001H17V15.001ZM11 14.001H9V12.001H11V14.001ZM23 14.001H21V12.001H23V14.001ZM9 12.001H7V10.001H9V12.001ZM13 12.001H11V9.00098H13V12.001ZM21 12.001H19V9.00098H21V12.001ZM25 12.001H23V10.001H25V12.001ZM7 10.001H5V8.00098H7V10.001ZM27 10.001H25V8.00098H27V10.001ZM15 9.00098H13V6.00098H15V9.00098ZM19 9.00098H17V6.00098H19V9.00098ZM17 6.00098H15V4.00098H17V6.00098Z" fill="currentColor"/>
</svg>
