<svg width="32" height="32" viewBox="0 0 32 32" fill="none" xmlns="http://www.w3.org/2000/svg">
<g clip-path="url(#clip0_10001_76995)">
<path d="M24 29H8V27H24V29ZM4 14H6V10H8V27H6V16H2V9H4V14ZM30 16H26V27H24V10H26V14H28V9H30V16ZM6 9H4V7H6V9ZM17 9H15V7H17V9ZM28 9H26V7H28V9ZM8 7H6V5H8V7ZM15 7H13V5H15V7ZM19 7H17V5H19V7ZM26 7H24V5H26V7ZM13 5H8V3H13V5ZM24 5H19V3H24V5Z" fill="currentColor"/>
</g>
<defs>
<clipPath id="clip0_10001_76995">
<rect width="32" height="32" fill="white"/>
</clipPath>
</defs>
</svg>
