<svg width="32" height="32" viewBox="0 0 32 32" fill="none" xmlns="http://www.w3.org/2000/svg">
<g clip-path="url(#clip0_10001_76967)">
<path d="M11 28H5V26H11V28ZM27 28H21V26H27V28ZM5 26H3V24H5V26ZM13 26H11V24H13V26ZM21 18H20V24H21V26H19V24H18V18H19V16H21V18ZM29 18H30V24H29V26H27V24H28V18H27V16H29V18ZM3 24H1V18H3V24ZM15 24H13V18H15V24ZM23 14H27V16H25V22H23V16H21V14H11V12H21V8H23V14ZM5 18H3V16H5V18ZM13 18H11V16H13V18ZM11 16H5V14H11V16ZM11 10V12H7V10H11ZM21 8H19V5H21V8ZM19 5H14V3H19V5ZM23 5H21V3H23V5Z" fill="currentColor"/>
</g>
<defs>
<clipPath id="clip0_10001_76967">
<rect width="32" height="32" fill="white"/>
</clipPath>
</defs>
</svg>
