<svg width="32" height="32" viewBox="0 0 32 32" fill="none" xmlns="http://www.w3.org/2000/svg">
<g clip-path="url(#clip0_10001_77003)">
<path d="M28 29H2V27H28V29ZM21 25H7V23H21V25ZM7 23H5V21H7V23ZM23 23H21V21H23V23ZM5 21H3V11H5V21ZM25 16H27V18H25V21H23V11H25V16ZM29 16H27V11H29V16ZM23 11H5V9H23V11ZM27 11H25V9H27V11ZM11 8H9V6H11V8ZM17 8H15V6H17V8ZM13 6H11V4H13V6ZM19 6H17V4H19V6ZM11 4H9V2H11V4ZM17 4H15V2H17V4Z" fill="currentColor"/>
</g>
<defs>
<clipPath id="clip0_10001_77003">
<rect width="32" height="32" fill="white"/>
</clipPath>
</defs>
</svg>
