<svg width="32" height="32" viewBox="0 0 32 32" fill="none" xmlns="http://www.w3.org/2000/svg">
<path d="M28 29.0012H4V27.0012H28V29.0012ZM11 10.0012H6V15.0012H5V21.0012H4V27.0012H2V21.0012H3V15.0012H4V9.00122H6V8.00122H9V4.00122H11V10.0012ZM23 8.00122H26V9.00122H28V15.0012H29V21.0012H30V27.0012H28V21.0012H27V15.0012H26V10.0012H13V8.00122H21V4.00122H23V8.00122ZM19 21.0012H13V19.0012H19V21.0012ZM13 19.0012H11V17.0012H13V19.0012ZM21 19.0012H19V17.0012H21V19.0012ZM11 17.0012H9V13.0012H11V17.0012ZM23 17.0012H21V13.0012H23V17.0012ZM21 4.00122H11V2.00122H21V4.00122Z" fill="currentColor"/>
</svg>
