<svg width="32" height="32" viewBox="0 0 32 32" fill="none" xmlns="http://www.w3.org/2000/svg">
<g clip-path="url(#clip0_10001_76975)">
<path d="M25.001 25.001V19.001H7V25.001H25.001ZM14 23.001H8V21.001H14.001L14 23.001ZM24.001 23.001H18.001V21.001H24.001V23.001ZM7 17.001H25.001V9H7V17.001ZM4 14.001H2V9H4V14.001ZM30.001 14.001H28.001V9H30.001V14.001ZM25.001 5H7V3H25.001V5ZM27.001 27.001H26.001V29.001H22.001V27.001H10V29.001H6V27.001H5V5H7V7H25.001V5H27.001V27.001Z" fill="currentColor"/>
</g>
<defs>
<clipPath id="clip0_10001_76975">
<rect width="32.0013" height="32.0013" fill="white"/>
</clipPath>
</defs>
</svg>
