<svg width="32" height="32" viewBox="0 0 32 32" fill="none" xmlns="http://www.w3.org/2000/svg">
<path d="M10 30.0007H8V24.0007H10V30.0007ZM20 24.0007H21V28.0007H22V30.0007H19V24.0007H18V22.0007H20V24.0007ZM12 24.0007H10V22.0007H12V24.0007ZM14 22.0007H12V20.0007H14V22.0007ZM18 22.0007H16V20.0007H18V22.0007ZM16 20.0007H14V18.0007H16V20.0007ZM14 18.0007H12V10.0007H14V18.0007ZM18 18.0007H16V12.0007H18V18.0007ZM10 17.0007H8V10.0007H10V17.0007ZM24 16.0007H22V14.0007H24V16.0007ZM22 12.0007V14.0007H20V12.0007H22ZM20 12.0007H18V8.00073H20V12.0007ZM12 10.0007H10V8.00073H12V10.0007ZM18 8.00073H12V6.00073H18V8.00073ZM17.667 4.66772H15V2.00073H17.667V4.66772Z" fill="currentColor"/>
</svg>
