<svg width="32" height="32" viewBox="0 0 32 32" fill="none" xmlns="http://www.w3.org/2000/svg">
<path d="M29 29H27V27H29V29ZM27 27H25V25H27V27ZM19 24H17V26H15V24H13V22H19V24ZM25 25H23V23H25V25ZM23 23H21V21H23V23ZM21 21H19V19H21V21ZM9 20H7V18H9V20ZM25 20H23V18H25V20ZM23 18H19V19H17V17H19V16H23V18ZM13 18H9V16H13V18ZM15 14H19V16H17V17H15V16H13V13H15V14ZM4 15H2V13H4V15ZM30 15H28V13H30V15ZM7 13H4V11H7V13ZM13 13H11V11H13V13ZM28 13H25V11H28V13ZM9 9H11V11H7V7H9V9ZM25 11H21V9H25V11ZM21 9H11V7H21V9ZM7 7H5V5H7V7ZM5 5H3V3H5V5Z" fill="currentColor"/>
</svg>
