<svg width="32" height="32" viewBox="0 0 32 32" fill="none" xmlns="http://www.w3.org/2000/svg">
<path d="M18 18H28V23H18V18Z" fill="#FEF991"/>
<path d="M2 9.99854H4.00007V17.9988H2V9.99854Z" fill="currentColor"/>
<path d="M18 16H28V18H18V16Z" fill="currentColor"/>
<path d="M18 23H28V25H18V23Z" fill="currentColor"/>
<path d="M15.999 9.99854H17.9991V13.9987H15.999V9.99854Z" fill="currentColor"/>
<path d="M14.001 9.99854H16.001V13.9987H14.001V9.99854Z" fill="currentColor"/>
<path d="M14.001 12.0015H18.0011V14.0015H14.001V12.0015Z" fill="currentColor"/>
<path d="M12.001 14H14.001V18.0001H12.001V14Z" fill="currentColor"/>
<path d="M28 10H30V14H28V10Z" fill="currentColor"/>
<path d="M3.99902 8H13.9994V10.0001H3.99902V8Z" fill="currentColor"/>
<path d="M18.002 8H28.0023V10.0001H18.002V8Z" fill="currentColor"/>
<path d="M3.99902 18.0015H11.9993V20.0015H3.99902V18.0015Z" fill="currentColor"/>
<path d="M28 18H30V23H28V18Z" fill="currentColor"/>
<path d="M30 19H31V22H30V19Z" fill="currentColor"/>
<rect x="16" y="18" width="2" height="5" fill="currentColor"/>
</svg>
