<svg width="32" height="32" viewBox="0 0 32 32" fill="none" xmlns="http://www.w3.org/2000/svg">
<g clip-path="url(#clip0_10001_76829)">
<path d="M12 26H10V24H12V26ZM10 24H8V22H10V24ZM14 24H12V22H14V24ZM8 22H6V20H8V22ZM16 22H14V20H16V22ZM6 20H4V18H6V20ZM18 20H16V18H18V20ZM4 18H2V16H4V18ZM20 18H18V16H20V18ZM22 16H20V14H22V16ZM24 14H22V12H24V14ZM26 12H24V10H26V12ZM28 10H26V8H28V10ZM30 8H28V6H30V8Z" fill="currentColor"/>
</g>
<defs>
<clipPath id="clip0_10001_76829">
<rect width="32" height="32" fill="white"/>
</clipPath>
</defs>
</svg>
