<svg width="32" height="32" viewBox="0 0 32 32" fill="none" xmlns="http://www.w3.org/2000/svg">
<path fill-rule="evenodd" clip-rule="evenodd" d="M4 22L14 22L14 24L4 24L4 22Z" fill="currentColor"/>
<path fill-rule="evenodd" clip-rule="evenodd" d="M4 7L28 7L28 9L4 9L4 7Z" fill="currentColor"/>
<path fill-rule="evenodd" clip-rule="evenodd" d="M4 18L14 18L14 20L4 20L4 18Z" fill="currentColor"/>
<rect x="2" y="9" width="2" height="13" fill="currentColor"/>
<rect x="28" y="9" width="2" height="6" fill="currentColor"/>
<rect x="14" y="14" width="4" height="2" fill="currentColor"/>
<path d="M18 17H28V19H18V17Z" fill="currentColor"/>
<path d="M18 19H28V24H18V19Z" fill="#FEF991"/>
<path d="M18 24H28V26H18V24Z" fill="currentColor"/>
<path d="M28 19H30V24H28V19Z" fill="currentColor"/>
<path d="M30 20H31V23H30V20Z" fill="currentColor"/>
<rect x="16" y="19" width="2" height="5" fill="currentColor"/>
</svg>
