<svg width="32" height="32" viewBox="0 0 32 32" fill="none" xmlns="http://www.w3.org/2000/svg">
<g clip-path="url(#clip0_10001_76749)">
<path d="M14.001 25.5H22V27.5H14V25.5H10.001V23.5H14.001V25.5ZM24 25.5H22V23.5H24V25.5ZM10 23.5H8V19.5H10V23.5ZM22 23.5H18V21.5H22V23.5ZM18 21.5H16V19.5H18V21.5ZM8 12.5V19.5H6V12.5H8ZM16 19.5H14V12.5H16V19.5ZM18 12.5H16V10.5H18V12.5ZM10 12.499H8V8.49902H10V12.499ZM22 10.499H18V8.49902H22V10.499ZM14 8.5H10V6.5H14V8.5ZM24 8.5H22V6.5H24V8.5ZM22 6.5H14V4.5H22V6.5Z" fill="currentColor"/>
</g>
<defs>
<clipPath id="clip0_10001_76749">
<rect width="32" height="32" fill="white"/>
</clipPath>
</defs>
</svg>
