<svg width="32" height="32" viewBox="0 0 32 32" fill="none" xmlns="http://www.w3.org/2000/svg">
<path d="M15 20H17V22H18V24H21V23H23V25H21V26H9V24H16V22H15V21H13V19H15V20ZM9 24H7V22H6V20H4V18H7V16H9V18H8V22H9V24ZM27 23H23V21H27V23ZM30 19H29V21H27V19H28V15H30V19ZM4 18H2V14H4V18ZM20 12H21V14H20V16H18V15H11V16H9V15H7V14H4V12H7V13H9V14H11V13H18V14H19V12H18V10H20V12ZM28 15H26V13H28V15ZM26 13H24V11H26V13ZM24 11H22V9H24V11ZM18 10H16V7H18V10ZM22 9H20V7H22V9ZM20 7H18V5H20V7Z" fill="currentColor"/>
</svg>
