<svg width="32" height="32" viewBox="0 0 32 32" fill="none" xmlns="http://www.w3.org/2000/svg">
<path d="M11.999 25.002H3.99902V23.002H11.999V25.002ZM28.001 25.002H20.001V23.002H28.001V25.002ZM18 17.002H18.001V19.002H14.002V23H12.002V19H14.001V14.999H18V17.002ZM20.002 23H18.002V19H20.002V23ZM13.999 15H4V22.999H2V14.999H3.99902V13H13.999V15ZM30 22.999H28V14.999H30V22.999ZM28 15H18V13H28V15ZM17 13H15V7H17V13ZM13 9H11V7H13V9ZM21 9H19V7H21V9ZM15 7H13V5H15V7ZM19 7H17V5H19V7ZM17 5H15V3H17V5Z" fill="currentColor"/>
</svg>
