<svg width="32" height="32" viewBox="0 0 32 32" fill="none" xmlns="http://www.w3.org/2000/svg">
<path d="M18 29H14V27H18V29ZM14 27H12V25H14V27ZM20 27H18V25H20V27ZM12 25H10V23H12V25ZM22 25H20V23H22V25ZM10 23H8V21H10V23ZM24 23H22V21H24V23ZM8 21H6V19H8V21ZM26 21H24V19H26V21ZM6 19H4V17H6V19ZM28 19H26V17H28V19ZM4 17H2V9H4V17ZM30 17H28V9H30V17ZM6 9H4V7H6V9ZM17 9H15V7H17V9ZM28 9H26V7H28V9ZM8 7H6V5H8V7ZM15 7H13V5H15V7ZM19 7H17V5H19V7ZM26 7H24V5H26V7ZM13 5H8V3H13V5ZM24 5H19V3H24V5Z" fill="currentColor"/>
</svg>
