<svg width="32" height="32" viewBox="0 0 32 32" fill="none" xmlns="http://www.w3.org/2000/svg">
<g clip-path="url(#clip0_10001_76913)">
<path d="M20 30H6V28H20V30ZM6 28H4V4H6V28ZM22 28H20V21H22V28ZM26 23H24V21H26V23ZM28 21H26V19H28V21ZM30 19H28V17H30V19ZM28 17H11V15H28V17ZM32 17H30V15H32V17ZM30 15H28V13H30V15ZM28 13H26V11H28V13ZM22 11H20V4H22V11ZM26 11H24V9H26V11ZM20 4H6V2H20V4Z" fill="currentColor"/>
</g>
<defs>
<clipPath id="clip0_10001_76913">
<rect width="32" height="32" fill="white"/>
</clipPath>
</defs>
</svg>
