<svg width="32" height="32" viewBox="0 0 32 32" fill="none" xmlns="http://www.w3.org/2000/svg">
<path d="M8 29H6V27H8V29ZM12 29H10V27H12V29ZM16 29H14V27H16V29ZM20 29H18V27H20V29ZM24 29H22V27H24V29ZM28 29H26V27H28V29ZM6 27H4V25H6V27ZM10 27H8V25H10V27ZM14 27H12V25H14V27ZM18 27H16V25H18V27ZM22 27H20V25H22V27ZM26 27H24V25H26V27ZM8 25H6V23H8V25ZM12 25H10V23H12V25ZM16 25H14V23H16V25ZM20 25H18V23H20V25ZM24 25H22V23H24V25ZM28 25H26V23H28V25ZM6 23H4V21H6V23ZM10 23H8V21H10V23ZM14 23H12V21H14V23ZM18 23H16V21H18V23ZM22 23H20V21H22V23ZM26 23H24V21H26V23ZM8 21H6V19H8V21ZM12 21H10V19H12V21ZM16 21H14V19H16V21ZM20 21H18V19H20V21ZM24 21H22V19H24V21ZM28 21H26V19H28V21ZM30 17H2V15H30V17Z" fill="currentColor"/>
</svg>
