<svg width="32" height="32" viewBox="0 0 32 32" fill="none" xmlns="http://www.w3.org/2000/svg">
<path d="M19 30H14V28H17V6H14V4H19V30ZM28 29H26V27H28V29ZM14 28H12V26H14V28ZM30 10H31V13H32V21H31V24H30V27H28V24H29V21H30V13H29V10H28V7H30V10ZM12 26H10V24H12V26ZM24 10H25V12H26V15H27V19H26V22H25V24H24V26H22V24H23V22H24V19H25V15H24V12H23V10H22V8H24V10ZM10 24H4V22H10V24ZM4 22H2V20H4V22ZM2 20H0V14H2V20ZM4 14H2V12H4V14ZM10 12H4V10H10V12ZM12 10H10V8H12V10ZM14 8H12V6H14V8ZM28 7H26V5H28V7Z" fill="currentColor"/>
</svg>
