<svg width="32" height="32" viewBox="0 0 32 32" fill="none" xmlns="http://www.w3.org/2000/svg">
<g clip-path="url(#clip0_10001_76909)">
<path d="M26 30H10V28H26V30ZM10 28H8V22H10V28ZM28 28H26V4H28V28ZM17 23H15V21H17V23ZM19 21H17V19H19V21ZM21 19H19V17H21V19ZM19 17H4V15H19V17ZM23 17H21V15H23V17ZM21 15H19V13H21V15ZM19 13H17V11H19V13ZM17 11H15V9H17V11ZM10 10H8V4H10V10ZM26 4H10V2H26V4Z" fill="currentColor"/>
</g>
<defs>
<clipPath id="clip0_10001_76909">
<rect width="32" height="32" fill="white"/>
</clipPath>
</defs>
</svg>
