<svg width="32" height="32" viewBox="0 0 32 32" fill="none" xmlns="http://www.w3.org/2000/svg">
<rect x="3" y="14" width="2" height="10" fill="#7B7B7B"/>
<rect x="7" y="14" width="2" height="10" fill="#7B7B7B"/>
<rect x="5" y="12" width="2" height="2" fill="#7B7B7B"/>
<rect x="9" y="12" width="2" height="2" fill="#7B7B7B"/>
<rect x="11" y="10" width="2" height="2" fill="#7B7B7B"/>
<rect x="13" y="8" width="2" height="2" fill="#7B7B7B"/>
<rect x="15" y="6" width="2" height="2" fill="#7B7B7B"/>
<rect x="17" y="4" width="2" height="2" fill="#7B7B7B"/>
<rect x="19" y="2" width="2" height="2" fill="#7B7B7B"/>
<rect x="26" y="14" width="2" height="6" fill="#7B7B7B"/>
<rect x="24" y="20" width="2" height="4" fill="#7B7B7B"/>
<rect x="22" y="24" width="2" height="2" fill="#7B7B7B"/>
<rect x="9" y="24" width="2" height="2" fill="#7B7B7B"/>
<rect x="11" y="26" width="11" height="2" fill="#7B7B7B"/>
<rect x="17" y="12" width="9" height="2" fill="#7B7B7B"/>
<rect x="21" y="4" width="2" height="4" fill="#7B7B7B"/>
<rect x="19" y="8" width="2" height="4" fill="#7B7B7B"/>
<rect x="5" y="24" width="2" height="2" fill="#7B7B7B"/>
</svg>
