<svg width="32" height="32" viewBox="0 0 32 32" fill="none" xmlns="http://www.w3.org/2000/svg">
<g clip-path="url(#clip0_10001_76733)">
<path d="M25 29H20V27H25V29ZM7.00098 27H5.00098V25H7.00098V27ZM20 27H18V25H20V27ZM27 27H25V25H27V27ZM9.00098 25H7.00098V23H9.00098V25ZM18 25H16V23H18V25ZM29 25H27V20H29V25ZM11.001 23H9.00098V21H11.001V23ZM15 19H13.001V21H11.001V19H13V17H15V19ZM27 20H25V18H27V20ZM25 18H23V16H25V18ZM9 16H7V14H9V16ZM19 15H17V13H19V15ZM7 14H5V12H7V14ZM21.001 13H19.001V11H21.001V13ZM5 12H3V7H5V12ZM23.001 11H21.001V9H23.001V11ZM16 9H14V7H16V9ZM25.001 9H23.001V7H25.001V9ZM7 7H5V5H7V7ZM14 7H12V5H14V7ZM27.001 7H25.001V5H27.001V7ZM12 5H7V3H12V5Z" fill="currentColor"/>
</g>
<defs>
<clipPath id="clip0_10001_76733">
<rect width="32" height="32" fill="white"/>
</clipPath>
</defs>
</svg>
