<svg width="32" height="32" viewBox="0 0 32 32" fill="none" xmlns="http://www.w3.org/2000/svg">
<path d="M30 17H2V15H30V17ZM8 13H6V11H8V13ZM12 13H10V11H12V13ZM16 13H14V11H16V13ZM20 13H18V11H20V13ZM24 13H22V11H24V13ZM28 13H26V11H28V13ZM6 11H4V9H6V11ZM10 11H8V9H10V11ZM14 11H12V9H14V11ZM18 11H16V9H18V11ZM22 11H20V9H22V11ZM26 11H24V9H26V11ZM8 9H6V7H8V9ZM12 9H10V7H12V9ZM16 9H14V7H16V9ZM20 9H18V7H20V9ZM24 9H22V7H24V9ZM28 9H26V7H28V9ZM6 7H4V5H6V7ZM10 7H8V5H10V7ZM14 7H12V5H14V7ZM18 7H16V5H18V7ZM22 7H20V5H22V7ZM26 7H24V5H26V7ZM8 5H6V3H8V5ZM12 5H10V3H12V5ZM16 5H14V3H16V5ZM20 5H18V3H20V5ZM24 5H22V3H24V5ZM28 5H26V3H28V5Z" fill="currentColor"/>
</svg>
