<svg width="32" height="32" viewBox="0 0 32 32" fill="none" xmlns="http://www.w3.org/2000/svg">
<rect x="26" y="8" width="2" height="10" fill="#7B7B7B"/>
<rect x="22" y="8" width="2" height="10" fill="#7B7B7B"/>
<rect x="24" y="18" width="2" height="2" fill="#7B7B7B"/>
<rect x="20" y="18" width="2" height="2" fill="#7B7B7B"/>
<rect x="18" y="20" width="2" height="2" fill="#7B7B7B"/>
<rect x="16" y="22" width="2" height="2" fill="#7B7B7B"/>
<rect x="14" y="24" width="2" height="2" fill="#7B7B7B"/>
<rect x="12" y="26" width="2" height="2" fill="#7B7B7B"/>
<rect x="10" y="28" width="2" height="2" fill="#7B7B7B"/>
<rect x="3" y="12" width="2" height="6" fill="#7B7B7B"/>
<rect x="5" y="8" width="2" height="4" fill="#7B7B7B"/>
<rect x="7" y="6" width="2" height="2" fill="#7B7B7B"/>
<rect x="20" y="6" width="2" height="2" fill="#7B7B7B"/>
<rect x="9" y="4" width="11" height="2" fill="#7B7B7B"/>
<rect x="5" y="18" width="9" height="2" fill="#7B7B7B"/>
<rect x="8" y="24" width="2" height="4" fill="#7B7B7B"/>
<rect x="10" y="20" width="2" height="4" fill="#7B7B7B"/>
<rect x="24" y="6" width="2" height="2" fill="#7B7B7B"/>
</svg>
