<svg width="32" height="32" viewBox="0 0 32 32" fill="none" xmlns="http://www.w3.org/2000/svg">
<path d="M19 30H14V28H17V24H19V30ZM14 28H12V26H14V28ZM12 26H10V24H12V26ZM10 24H4V22H10V24ZM4 22H2V20H4V22ZM19 22H17V20H19V22ZM27 22H25V20H27V22ZM2 20H0V14H2V20ZM21 20H19V18H21V20ZM25 20H23V18H25V20ZM23 18H21V16H23V18ZM21 16H19V14H21V16ZM25 16H23V14H25V16ZM4 14H2V12H4V14ZM19 14H17V12H19V14ZM27 14H25V12H27V14ZM10 12H4V10H10V12ZM12 10H10V8H12V10ZM19 10H17V6H14V4H19V10ZM14 8H12V6H14V8Z" fill="currentColor"/>
</svg>
