<svg width="32" height="32" viewBox="0 0 32 32" fill="none" xmlns="http://www.w3.org/2000/svg">
<path d="M19.9971 28.9971H17.9971V26.9971H19.9971V28.9971ZM21.9971 26.9971H19.9971V24.9971H21.9971V26.9971ZM17.9971 26.9951H15.9971V18H17.9971V26.9951ZM8 26H6V24H8V26ZM23.9971 24.9971H21.9971V22.9971H23.9971V24.9971ZM10 24H8V22H10V24ZM26 22.9971H24V20.9971H26V22.9971ZM12 22H10V20H12V22ZM23.9971 20.9971H21.9971V18.9971H23.9971V20.9971ZM14 20H12V18H14V20ZM14 14H12V12H14V14ZM19.9971 4.99707H21.9971V6.99707H19.9971V5H17.9971V14H15.9971V4.99707H17.9971V3H19.9971V4.99707ZM23.9971 12.9971H21.9971V10.9971H23.9971V12.9971ZM12 12H10V10H12V12ZM26 10.9971H24V8.99707H26V10.9971ZM10 10H8V8H10V10ZM23.9971 9H21.9971V7H23.9971V9ZM8 8H6V6H8V8Z" fill="#FF453A"/>
</svg>
