<svg width="32" height="32" viewBox="0 0 32 32" fill="none" xmlns="http://www.w3.org/2000/svg">
<g clip-path="url(#clip0_10001_76741)">
<path d="M19.998 28.9971H17.998V26.9971H19.998V28.9971ZM23.9971 24.999H21.998V26.9971H19.998V24.9971H21.9971V22.999H23.9971V24.999ZM17.998 14.999H19.998V16.9971H21.998V18.9971H19.998V16.999H17.998V26.9961H15.998V18H14V14H15.998V4.99902H17.998V14.999ZM8 26H6V24H8V26ZM10 24H8V22H10V24ZM26 22.9971H24V20.9971H26V22.9971ZM12 22H10V20H12V22ZM23.9971 20.999H21.9971V18.999H23.9971V20.999ZM14 20H12V18H14V20ZM21.998 15H19.998V13H21.998V15ZM14 14H12V12H14V14ZM23.9971 12.999H21.9971V10.999H23.9971V12.999ZM12 12H10V10H12V12ZM26 10.999H24V8.99902H26V10.999ZM10 10H8V8H10V10ZM23.9971 9H21.9971V7H23.9971V9ZM8 8H6V6H8V8ZM21.998 6.99902H19.998V4.99902H21.998V6.99902ZM19.998 5H17.998V3H19.998V5Z" fill="currentColor"/>
</g>
<defs>
<clipPath id="clip0_10001_76741">
<rect width="32" height="32" fill="white"/>
</clipPath>
</defs>
</svg>
